HIERARCHY
ROOT hip
{
  OFFSET 0 0 0
  CHANNELS 6 Xposition Yposition Zposition Zrotation Yrotation Xrotation
  JOINT abdomen
  {
    OFFSET 0 20.6881 -0.73152
    CHANNELS 3 Zrotation Xrotation Yrotation
    JOINT chest
    {
      OFFSET 0 11.7043 -0.48768
      CHANNELS 3 Zrotation Xrotation Yrotation
      JOINT neck
      {
        OFFSET 0 22.1894 -2.19456
        CHANNELS 3 Zrotation Xrotation Yrotation
        JOINT head
        {
          OFFSET -0.24384 7.07133 1.2192
          CHANNELS 3 Zrotation Xrotation Yrotation
          JOINT leftEye
          {
            OFFSET 4.14528 8.04674 8.04672
            CHANNELS 3 Zrotation Xrotation Yrotation
            End Site
            {
              OFFSET 1 0 0
            }
          }
          JOINT rightEye
          {
            OFFSET -3.6576 8.04674 8.04672
            CHANNELS 3 Zrotation Xrotation Yrotation
            End Site
            {
              OFFSET 1 0 0
            }
          }
        }
      }
      JOINT rCollar
      {
        OFFSET -2.68224 19.2634 -4.8768
        CHANNELS 3 Zrotation Xrotation Yrotation
        JOINT rShldr
        {
          OFFSET -8.77824 -1.95073 1.46304
          CHANNELS 3 Zrotation Xrotation Yrotation
          JOINT rForeArm
          {
            OFFSET -28.1742 -1.7115 0.48768
            CHANNELS 3 Zrotation Xrotation Yrotation
            JOINT rHand
            {
              OFFSET -22.5879 0.773209 7.07136
              CHANNELS 3 Zrotation Xrotation Yrotation
              JOINT rThumb1
              {
                OFFSET -1.2192 -0.487915 3.41376
                CHANNELS 3 Zrotation Xrotation Yrotation
                JOINT rThumb2
                {
                  OFFSET -3.37035 -0.52449 3.41376
                  CHANNELS 3 Zrotation Xrotation Yrotation
                  End Site
                  {
                    OFFSET -1.78271 -1.18214 1.43049
                  }
                }
              }
              JOINT rIndex1
              {
                OFFSET -7.75947 0.938293 5.60832
                CHANNELS 3 Zrotation Xrotation Yrotation
                JOINT rIndex2
                {
                  OFFSET -2.54057 -0.884171 1.56538
                  CHANNELS 3 Zrotation Xrotation Yrotation
                  End Site
                  {
                    OFFSET -1.62519 -0.234802 1.16502
                  }
                }
              }
              JOINT rMid1
              {
                OFFSET -8.24714 1.18213 3.41376
                CHANNELS 3 Zrotation Xrotation Yrotation
                JOINT rMid2
                {
                  OFFSET -3.10165 -0.590103 1.0647
                  CHANNELS 3 Zrotation Xrotation Yrotation
                  End Site
                  {
                    OFFSET -2.48547 -0.328903 0.83742
                  }
                }
              }
              JOINT rRing1
              {
                OFFSET -8.82822 0.546677 1.51678
                CHANNELS 3 Zrotation Xrotation Yrotation
                JOINT rRing2
                {
                  OFFSET -2.60934 -0.819778 -0.0198488
                  CHANNELS 3 Zrotation Xrotation Yrotation
                  End Site
                  {
                    OFFSET -2.33842 -0.294052 0.168128
                  }
                }
              }
              JOINT rPinky1
              {
                OFFSET -8.27202 -0.0477905 -0.4584
                CHANNELS 3 Zrotation Xrotation Yrotation
                JOINT rPinky2
                {
                  OFFSET -1.82734 -0.647385 -0.700984
                  CHANNELS 3 Zrotation Xrotation Yrotation
                  End Site
                  {
                    OFFSET -1.69225 -0.51767 -0.607171
                  }
                }
              }
            }
          }
        }
      }
      JOINT lCollar
      {
        OFFSET 2.68224 19.2634 -4.8768
        CHANNELS 3 Zrotation Xrotation Yrotation
        JOINT lShldr
        {
          OFFSET 8.77824 -1.95073 1.46304
          CHANNELS 3 Zrotation Xrotation Yrotation
          JOINT lForeArm
          {
            OFFSET 28.1742 -1.7115 0.48768
            CHANNELS 3 Zrotation Xrotation Yrotation
            JOINT lHand
            {
              OFFSET 22.5879 0.773209 7.07136
              CHANNELS 3 Zrotation Xrotation Yrotation
              JOINT lThumb1
              {
                OFFSET 1.2192 -0.487915 3.41376
                CHANNELS 3 Zrotation Xrotation Yrotation
                JOINT lThumb2
                {
                  OFFSET 3.37035 -0.52449 3.41376
                  CHANNELS 3 Zrotation Xrotation Yrotation
                  End Site
                  {
                    OFFSET 1.78271 -1.18214 1.43049
                  }
                }
              }
              JOINT lIndex1
              {
                OFFSET 7.75947 0.938293 5.60832
                CHANNELS 3 Zrotation Xrotation Yrotation
                JOINT lIndex2
                {
                  OFFSET 2.54057 -0.884171 1.56538
                  CHANNELS 3 Zrotation Xrotation Yrotation
                  End Site
                  {
                    OFFSET 1.62519 -0.234802 1.16502
                  }
                }
              }
              JOINT lMid1
              {
                OFFSET 8.24714 1.18213 3.41376
                CHANNELS 3 Zrotation Xrotation Yrotation
                JOINT lMid2
                {
                  OFFSET 3.10165 -0.590103 1.0647
                  CHANNELS 3 Zrotation Xrotation Yrotation
                  End Site
                  {
                    OFFSET 2.48547 -0.328903 0.83742
                  }
                }
              }
              JOINT lRing1
              {
                OFFSET 8.82822 0.546677 1.51678
                CHANNELS 3 Zrotation Xrotation Yrotation
                JOINT lRing2
                {
                  OFFSET 2.60934 -0.819778 -0.0198488
                  CHANNELS 3 Zrotation Xrotation Yrotation
                  End Site
                  {
                    OFFSET 2.33842 -0.294052 0.168128
                  }
                }
              }
              JOINT lPinky1
              {
                OFFSET 8.27202 -0.0477905 -0.4584
                CHANNELS 3 Zrotation Xrotation Yrotation
                JOINT lPinky2
                {
                  OFFSET 1.82734 -0.647385 -0.700984
                  CHANNELS 3 Zrotation Xrotation Yrotation
                  End Site
                  {
                    OFFSET 1.69225 -0.51767 -0.607171
                  }
                }
              }
            }
          }
        }
      }
    }
  }
  JOINT rButtock
  {
    OFFSET -8.77824 4.35084 1.2192
    CHANNELS 3 Zrotation Xrotation Yrotation
    JOINT rThigh
    {
      OFFSET 0 -1.70687 -2.19456
      CHANNELS 3 Zrotation Xrotation Yrotation
      JOINT rShin
      {
        OFFSET 0 -36.8199 0.73152
        CHANNELS 3 Zrotation Xrotation Yrotation
        JOINT rFoot
        {
          OFFSET 0.73152 -45.1104 -5.12064
          CHANNELS 3 Zrotation Xrotation Yrotation
          End Site
          {
            OFFSET -1.1221 -3.69964 12.103
          }
        }
      }
    }
  }
  JOINT lButtock
  {
    OFFSET 8.77824 4.35084 1.2192
    CHANNELS 3 Zrotation Xrotation Yrotation
    JOINT lThigh
    {
      OFFSET 0 -1.70687 -2.19456
      CHANNELS 3 Zrotation Xrotation Yrotation
      JOINT lShin
      {
        OFFSET 0 -36.8199 0.73152
        CHANNELS 3 Zrotation Xrotation Yrotation
        JOINT lFoot
        {
          OFFSET -0.73152 -45.1104 -5.12064
          CHANNELS 3 Zrotation Xrotation Yrotation
          End Site
          {
            OFFSET 1.1221 -3.69964 12.103
          }
        }
      }
    }
  }
}
MOTION
Frames:	4
Frame Time:	0.03333
0.0334310012228621 58.6467772705325 0.3863016789950225 -72.0233154296875 -0.6744075417518616 6.5626020431518555 -63.53559112548828 0.2707180976867676 15.181384086608887 49.85984420776367 -0.3472888469696045 5.052948951721191 -74.42283630371094 0.10511794686317444 17.587976455688477 79.50175476074219 -0.3995688557624817 31.10921859741211 1.4293667078018188 0.07750499248504639 -8.09087085723877 -0.47084882855415344 0.08778457343578339 -10.6231050491333 0.16687889397144318 0.12404812127351761 -5.755709171295166 90.37350463867188 1.1310333013534546 -24.74287223815918 -88.4947280883789 -0.4661361873149872 116.18083953857422 -29.42100715637207 -1.2700655460357666 -1.1168622970581055 -4.633918762207031 0.015795186161994934 5.047360420227051 -4.094940662384033 -0.16576902568340302 5.109641075134277 5.8876566886901855 0.10861685127019882 2.4659781455993652 76.94374084472656 0.21236750483512878 6.976212501525879 3.934952735900879 -0.034208208322525024 -0.3621375262737274 56.845001220703125 0.051646050065755844 1.9553072452545166 3.2505013942718506 0.00619087927043438 -0.6184823513031006 80.15731048583984 0.15517044067382812 7.599316120147705 -5.321808815002441 -0.13243386149406433 -5.807963848114014 55.52177429199219 -0.02032538875937462 -0.22365954518318176 1.9108448028564453 -0.17203660309314728 7.32340145111084 -88.64956665039062 -0.15114709734916687 -23.41164779663086 88.38151550292969 -1.0640336275100708 -102.36773681640625 36.37205505371094 0.660541296005249 -7.4815192222595215 2.307973861694336 0.12183169275522232 -8.900854110717773 7.803709983825684 -0.04233468696475029 6.406843662261963 -6.417295455932617 0.1708918809890747 -0.5252114534378052 -80.6197509765625 -0.11266297101974487 20.228912353515625 1.3633984327316284 -0.04572576284408569 4.068369388580322 -59.02149200439453 0.04416212439537048 0.2517890930175781 -6.358675956726074 -0.15294615924358368 10.732463836669922 -82.30702209472656 0.07286890596151352 4.853930473327637 -2.6691548824310303 0.11571723222732544 -1.4260731935501099 -62.009639739990234 -0.3290790319442749 9.490099906921387 -0.46589964628219604 -0.07680925726890564 4.421595573425293 -85.81461334228516 -1.0212454795837402 -12.34660530090332 -27.21700096130371 4.863077163696289 2.7763330936431885 -72.35154724121094 -0.5442209839820862 -22.303443908691406 2.3523638248443604 -0.029240382835268974 1.0548914670944214 90.8154296875 -0.6135255098342896 73.18181610107422 16.679729461669922 2.5023372173309326 -1.8496320247650146 74.04981231689453 0.10896847397089005 -16.836292266845703
-0.5038475804245023 62.37527508560492 -0.2583141258718857 -82.511962890625 2.49383807182312 39.930572509765625 -28.228273391723633 0.5625693202018738 0.5103438496589661 32.45390701293945 -0.7066582441329956 -0.9404321908950806 -54.308319091796875 0.8019426465034485 -5.560762405395508 75.31739044189453 -0.6057608723640442 -4.246638774871826 -2.8482446670532227 -0.2214256227016449 0.6866742372512817 -2.5289652347564697 0.14768429100513458 0.9005736112594604 -5.242987632751465 -0.17332996428012848 7.387107849121094 87.05287170410156 0.21170112490653992 41.65214920043945 -85.77568054199219 -1.444669485092163 68.7818832397461 -22.321950912475586 1.005518913269043 0.19858908653259277 0.3332999050617218 -0.17627708613872528 -0.3688243627548218 0.14059953391551971 0.04295877739787102 -0.7394535541534424 -1.783776044845581 -0.26857495307922363 -3.5333056449890137 63.77831268310547 -0.0004812081460841 -2.613954544067383 -0.27514931559562683 -0.07095688581466675 4.038229465484619 36.509273529052734 0.19609735906124115 2.2453150749206543 -1.1266177892684937 -0.15047687292099 8.605012893676758 70.20650482177734 0.06913492828607559 2.541761875152588 3.821841239929199 0.029871512204408646 5.926758289337158 38.021697998046875 -0.16792362928390503 5.534080982208252 -1.9479621648788452 0.10602103173732758 -2.033977508544922 -88.75462341308594 3.194732904434204 -7.7489824295043945 85.48338317871094 -0.7273505330085754 -69.54268646240234 25.069992065429688 -1.4415110349655151 12.895627975463867 -1.146129846572876 0.006702549755573273 7.076308727264404 -3.977553367614746 0.24300602078437805 0.07589951902627945 -0.6786645650863647 -0.04062170162796974 10.17464542388916 -71.35160827636719 0.15982268750667572 -4.88966178894043 -1.934755802154541 -0.02131848782300949 2.570889711380005 -36.612586975097656 0.13383404910564423 0.14545683562755585 -3.0441741943359375 0.12838834524154663 -10.424420356750488 -72.84540557861328 0.20037026703357697 0.43109917640686035 0.6957165002822876 -0.24444480240345 2.770306348800659 -36.77864074707031 0.14517995715141296 -0.22092224657535553 2.314148426055908 0.1435856819152832 -6.172701835632324 -81.0051498413086 -1.2817133665084839 -4.0844244956970215 -15.239169120788574 7.320464134216309 5.720975399017334 -58.46722412109375 0.06020252779126167 -1.9880417585372925 1.4825522899627686 0.15504002571105957 6.415247917175293 84.26394653320312 -1.2488212585449219 0.60384601354599 10.49250316619873 4.604732513427734 6.038282871246338 62.06128692626953 -0.567520260810852 23.328292846679688
-1.72751054806496 59.02969816597093 -0.5723318061589574 -3.4278414249420166 -7.116349697113037 11.011266708374023 -3.5029489994049072 14.894268035888672 4.163504600524902 5.206686019897461 -10.412970542907715 1.7584127187728882 -5.2118377685546875 14.598618507385254 -2.4369735717773438 10.544878005981445 -24.225112915039062 -3.636620283126831 -0.4630512595176697 0.08114718645811081 0.8908721804618835 -1.019045114517212 0.2979426681995392 0.14059396088123322 0.0017631605733186007 0.17556515336036682 1.0860531330108643 49.358211517333984 41.43852996826172 16.619672775268555 -24.56310272216797 -30.055570602416992 74.73128509521484 -1.091290831565857 -20.04261589050293 -1.4998129606246948 0.6115679144859314 0.7249292135238647 1.9586702585220337 0.15146636962890625 -0.011721314862370491 0.8879189491271973 0.7096431255340576 -0.08089879900217056 1.3392621278762817 6.27551794052124 4.5143914222717285 2.4053351879119873 0.4910135269165039 -0.2689359188079834 0.2773844599723816 2.966550588607788 1.3279672861099243 1.3493646383285522 0.038841232657432556 0.005594328977167606 1.2989246845245361 9.734509468078613 0.9187225103378296 1.7387586832046509 0.07104189693927765 -0.32652226090431213 0.8475450873374939 2.411379814147949 -1.5858350992202759 1.4273345470428467 -0.08223981410264969 -0.2613828778266907 1.4333186149597168 -48.34032440185547 38.32016372680664 -31.41335678100586 23.6647891998291 -21.220054626464844 -57.895790100097656 0.41253435611724854 -2.0529069900512695 1.1546682119369507 -0.16962024569511414 0.05332311615347862 1.716644287109375 0.12919855117797852 0.27385982871055603 1.4743905067443848 -0.3248978555202484 -0.1516234576702118 1.5823460817337036 -7.240660190582275 4.7207136154174805 1.0822829008102417 -0.0747608169913292 -0.2356676608324051 1.7298592329025269 -2.483517646789551 0.801507294178009 2.015669584274292 -1.0592666864395142 0.003360576229169965 0.8788208961486816 -9.864272117614746 0.9889507293701172 1.5610696077346802 -0.020713625475764275 0.5849757790565491 2.301378011703491 -1.7283118963241577 -1.002747893333435 1.4277440309524536 -0.048047613352537155 0.224440336227417 0.6375728845596313 -22.371017456054688 -46.03168487548828 -15.649393081665039 -3.245929718017578 68.47526550292969 6.193855285644531 -3.4047305583953857 -11.317530632019043 -7.255273342132568 0.2447783201932907 -0.6828821897506714 1.3426425457000732 19.73795509338379 -38.85588073730469 15.596860885620117 -0.5067989826202393 61.038421630859375 0.35495004057884216 7.9556965827941895 -11.503618240356445 16.17058753967285
-2.562744713031612 59.73633587712211 -0.8282997086900908 -0.02573315054178238 -11.064858436584473 7.596548557281494 -7.327113628387451 16.184349060058594 2.015986680984497 6.143505573272705 -9.219849586486816 0.5040231347084045 -5.147049427032471 14.988441467285156 -3.1289315223693848 10.754436492919922 -25.81877899169922 -4.5819525718688965 -0.8951019644737244 0.0008262244518846273 1.261206865310669 -0.3038301169872284 0.3636697828769684 0.022934524342417717 -0.08354821056127548 0.2420109510421753 1.593973159790039 57.666316986083984 46.42094802856445 11.553609848022461 -26.727880477905273 -32.600765228271484 77.78318786621094 -1.4897345304489136 -34.12784957885742 -4.494006633758545 0.7731512784957886 0.15710178017616272 1.4743276834487915 0.5631112456321716 0.16602587699890137 0.6321359872817993 0.5985842347145081 -0.3744518756866455 0.561028242111206 6.594633102416992 4.667522430419922 2.955906391143799 -0.048616115003824234 -0.6049403548240662 0.4854843020439148 2.9643781185150146 1.5265588760375977 1.1141659021377563 0.38573378324508667 -0.5030229091644287 0.3501942753791809 10.1851806640625 1.8888851404190063 1.1821366548538208 0.34717464447021484 -0.36135417222976685 0.6665331125259399 2.3379006385803223 -1.9012219905853271 0.8044108748435974 -0.8451911211013794 -0.5953273773193359 0.263592928647995 -39.03330612182617 31.19753074645996 -48.92514419555664 20.92494010925293 -13.759780883789062 -45.16845703125 -0.6170739531517029 14.283013343811035 -0.6473278403282166 -0.3518482446670532 -0.7786498069763184 0.510562002658844 0.2558995485305786 0.7683779001235962 2.1346218585968018 -0.20739926397800446 -0.7978533506393433 0.840474009513855 -6.544350624084473 5.189721584320068 -0.23233026266098022 0.1709011048078537 -0.2680797874927521 1.3875160217285156 -3.5811803340911865 0.11846805363893509 1.0627843141555786 -0.804848849773407 -0.17761927843093872 0.5873618125915527 -10.971991539001465 0.25641748309135437 0.39281630516052246 -0.7453808784484863 0.4801222085952759 1.9240868091583252 -1.9176626205444336 -0.2928124666213989 1.3719556331634521 0.12320990860462189 -0.6922559142112732 0.516523003578186 -21.41490936279297 -53.82175827026367 -15.581160545349121 -5.342552661895752 77.80134582519531 8.212711334228516 -3.3248581886291504 -5.925963401794434 -7.613089084625244 -0.14604292809963226 0.3637755215167999 1.031429648399353 7.7939558029174805 -28.262474060058594 9.449566841125488 -1.2233648300170898 55.64117431640625 -0.6112458109855652 10.208641052246094 -10.80267333984375 22.223798751831055
